<?xml version="1.0" encoding="utf-8"?>
<!-- Generator: Adobe Illustrator 21.0.0, SVG Export Plug-In . SVG Version: 6.00 Build 0)  -->
<svg version="1.1" id="Layer_1" xmlns="http://www.w3.org/2000/svg" xmlns:xlink="http://www.w3.org/1999/xlink" x="0px" y="0px"
	 viewBox="0 0 626.9 375.3" style="enable-background:new 0 0 626.9 375.3;" xml:space="preserve">
<style type="text/css">
	.st0{fill:#265463;}
	.st1{fill:#FAA819;}
	.st2{fill:#DF4627;}
</style>
<g>
	<path class="st0" d="M541.1,245.3c-0.6-7-1.6-14-4.3-20.6c-4.5-11.1-13.3-19.6-23.4-25.7c-10.7-6.5-22.9-10.6-34.9-13.9
		c-14.4-4-29.5-6.8-44.4-6c-26.7,1.5-53.7,15.8-62.7,42c-9.4,1.7-17.7,5.5-25.2,11.7c-1.5,1.3-2.1,2.8-2.1,4.2
		c-4.2,10.1,2.7,20.5,11.5,25.9c0.4,0.2,0.7,0.4,1.1,0.6c1.7,15.4-6.2,30.5-9.1,45.4c-3,15.9-0.2,31.4,11.7,43.1
		c13,12.8,31.2,17,48.7,19.7c19.9,3,40.2,5,60.1,1c15.5-3.1,30.8-10.4,41.9-21.9c12.5-13,17.7-30.9,20.2-48.4
		c1.5-10.6,2.6-22,0-32.1c3.7-1.5,6.8-3.8,9.1-7.3C542.5,257.9,541.6,251.2,541.1,245.3z M518.5,293.8c-1.2,15.2-4.7,32.6-14.4,44.8
		c-8.8,11.1-22.1,18-35.7,21.3c-17.1,4.2-35.1,2.9-52.4,0.5c-15.7-2.2-33.3-4.5-45.8-15.2c-13.3-11.4-12.5-26.6-8.3-42.1
		c3.1-11.3,6.8-22.4,7.2-33.8c6.8,1.8,13.9,2.5,20.9,2.8c1.2,0.1,2.4,0.2,3.7,0.3c13.4,0.8,26.9,1.1,40.4,0.8
		c7.1,0.1,14.2,0.2,21.2,0.3c16,0.1,32.1,0.1,48.1-0.1c4.4-0.1,9.5,0.1,14.7-0.3C519.9,279.6,519,287.5,518.5,293.8z"/>
	<path class="st1" d="M523.7,266.7c-0.2,1.3-0.4,2.6-0.6,3.9c-0.2-1.2-0.4-2.4-0.7-3.6c-16.8,4-34.7,4.6-51.6,2.8
		c-0.6,11.8,4.4,35.9,19.9,30.2c3.4-1.2,4.5-4,7.3-5.9c3.9-2.6,5.2,3.2,5.5,6.4c0.7,8.5-1.9,17.5,3.9,25c4.4,5.8,11.3,5.5,16.9,1.4
		c5.5-4,7.9-10.8,9.4-17.2c2.3-9.8,4.1-19.9,5.2-30c0.5-4.9,1.8-12.2,0.9-18.2C534.5,263.7,529.2,265.4,523.7,266.7z"/>
	<path class="st0" d="M388.6,281.4c-8.1,0-8.1,12.6,0,12.6C396.7,294,396.7,281.4,388.6,281.4z"/>
	<path class="st0" d="M431.9,283.8c-8.1,0-8.1,12.6,0,12.6C440,296.4,440,283.8,431.9,283.8z"/>
	<path class="st0" d="M439.3,310.3c-9.1-4.4-19.2-6.5-29.2-7.4c-5-0.5-10-0.6-15-0.7c-6.7-0.1-17-0.8-20.8,6.2
		c-1.4,2.6-2,5.5-2.4,8.4c-0.6,5.2-0.4,11.4,1.9,16.2c6.1,13,25.5,17,38.2,18.6c12.4,1.6,32.8,2.6,41-9.3
		C461.4,329.8,450.6,315.8,439.3,310.3z M441.3,341.8c-12.3,5.4-29.4,2.9-41.7-0.8c-6.2-1.8-14.1-4.3-18-9.9
		c-1.9-2.8-2.3-6.3-2.2-9.6c0.1-2.1,0.2-4.2,0.5-6.2c0.3-2.1,0.6-3.6,2.5-4.7c2.7-1.6,5.6-1.5,8.6-1.4c12.2,0.4,25.1,1.2,36.8,4.8
		c6.1,1.9,12.7,4.6,16.8,9.7C449.7,330,449,338.4,441.3,341.8z"/>
	<path class="st2" d="M397.8,341.8c0-0.1,0.1-0.1,0.1-0.2c0.2,0.2,0.5,0.3,0.7,0.5c3.4,0.9,6.8,1.5,10.4,1.9
		c5.7,0.7,12.5,1.6,18.6,1.2c3.5-3.1,6-6.9,7.1-11.6c1-4.3,0.5-9.8-4.7-10.7c-2.5-0.4-5.2,0.6-7.5,1.6c-0.9,0.4-2.6,1.9-3.5,1.9
		c-1.1,0-0.4-0.6-0.4-2.3c0.1-4.8-1.1-10.2-6.3-11.9c-4.3-1.4-8.6,1.1-9.7,5.4c-0.1,0.6-0.2,7.3,0,7.3c0,0-4.9-5.2-5.8-5.6
		c-4.2-1.7-8.7,1.2-10,5.3c-1.4,4.5,0.3,9.6,2.4,14C392,340,394.9,341,397.8,341.8z"/>
</g>
<g>
	<path class="st1" d="M391,60.3c-6.1-16.1-17.6-29.3-32.1-38.4C346.5,14,332.4,9,318,5.7c-15.7-3.6-32.6-5.7-49.5-5.5
		c-26.5,0.3-55.9,5.9-77.3,22.4c-13.1,10.1-23.6,23.7-30.1,38.9c-6,14.1-15.8,39.8-1.4,52.3c5.8,5,12.9,5.1,20.1,5.3
		c4.1,0.1,8.2,0.4,12.3,0.8c-3.5-17.1-7.3-39.2,4-54.2C207.4,50.8,229.5,52,246.2,51c23.8-1.3,47.7-0.4,71.4,2.5
		c15.4,1.8,31,4.3,35.8,21.5c2.4,8.7,3.1,18.5,3.8,27.4c0.5,6.6,0.6,13.5-0.7,20.1c0.1,0,0.1,0,0.2,0c10.2-0.7,28.8,1.2,36.7-6.6
		c2.7-2.7,3.9-6.5,4.3-10.3C399.5,90.2,396.5,74.6,391,60.3z"/>
	<path class="st2" d="M295.6,119.2c-2.2-8.8-14.5-16.9-20.4-6.3c-1.9,3.3-2.6,7-2.4,10.7c-3.2-0.8-6.5-0.6-8.7,2.1
		c-2.9,3.5-1.4,8.5,0.8,11.9c2.5,3.7,6.3,6.3,10.7,7.2c0.9,0.2,1.7,0.1,2.4-0.1c1.8-0.1,3.5-0.5,5.2-1.4c3.5-0.1,6.8-2.1,9-5
		c3-4.2,2.8-9.4,1.7-14.2C295.2,123.2,296.1,121.5,295.6,119.2z"/>
	<path class="st0" d="M363.4,101.5c-0.9-13.1-1.6-29.3-14-35.4c-0.3,4.5-4.5-1.9-5.2,2.5c2.9,4.5,6.8,22.9,7.3,27.8
		c0.7,7.6,1,15.3,0.7,22.9c-0.2,6.6-0.7,13.8-4.6,19.4c-6.2,8.8-18.7,11.1-28.7,12.2c-14.8,1.6-29.8,2.2-44.6,2.4
		c-14.3,0.2-29.2,0.5-43.4-1.9c-14.2-2.4-26.2-8.9-32.1-22.7c-6.5-15.3-1.7-44.8,0.5-60.8c-0.4-4.2-3.3,3.8-3.7-0.4
		c-6.3,1.6-13.1,5-10.7,12.7c0.1,0.4,0.2,0.7,0.4,1c-2.2,15.7-3.9,32,1.2,47.3c4.9,14.8,15.2,25.8,29.8,31.1
		c14.9,5.4,31.9,5.1,47.4,5.3c17.9,0.2,36-0.5,53.8-2.3c12.9-1.3,27.6-3.9,36.8-14C365.5,136.2,364.4,116.9,363.4,101.5z"/>
	<path class="st0" d="M220.5,82.8c-10.9,0-10.9,17,0,17C231.5,99.7,231.5,82.8,220.5,82.8z"/>
	<path class="st0" d="M316.9,82.8c-10.9,0-10.9,17,0,17C327.8,99.7,327.8,82.8,316.9,82.8z"/>
	<path class="st0" d="M293.8,96.1c-3.2-6.2-5.9-11.2-13.6-11.1c-9,0-17.9,0.6-26.9,0.9c-2.4,0.1-3.9,1.6-4.4,3.4
		c-2.9,3.1-3.3,7.8-3.3,12c0,7,0.6,14,2.3,20.8c2.9,11.3,9.6,25.2,22.6,26.6c12.5,1.3,24.5-4.6,29-16.5
		C304.1,119.8,299.4,107.1,293.8,96.1z M287.7,133.6c-3.5,4.2-9.8,5.6-15.1,5.4c-6.1-0.2-9.5-5.2-12-10.2
		c-2.6-5.2-4.1-11.1-4.8-16.9c-0.4-3-0.5-6-0.5-9.1c0-1.7-0.7-6.2,1.2-7.2c0.1,0,0.2-0.1,0.2-0.1c5.6-0.2,11.2-0.4,16.7-0.6
		c2.1-0.1,6.9-1.1,8.7,0.1c1.8,1.2,3,5.5,3.9,7.4C290.7,111.6,295.2,124.5,287.7,133.6z"/>
	<g>
		<path class="st1" d="M182.2,36v24.8c0,8,6.4,14.4,14.4,14.4c8,0,14.4-6.4,14.4-14.4V36H182.2z"/>
		<path class="st1" d="M211,36v24.8c0,8,6.4,14.4,14.4,14.4h0c8,0,14.4-6.4,14.4-14.4V36H211z"/>
		<path class="st1" d="M239.8,36v24.8c0,8,6.4,14.4,14.4,14.4h0c8,0,14.4-6.4,14.4-14.4V36H239.8z"/>
	</g>
	<g>
		<path class="st1" d="M267.9,36v24.8c0,8,6.4,14.4,14.4,14.4c8,0,14.4-6.4,14.4-14.4V36H267.9z"/>
		<path class="st1" d="M296.7,36v24.8c0,8,6.4,14.4,14.4,14.4h0c8,0,14.4-6.4,14.4-14.4V36H296.7z"/>
		<path class="st1" d="M325.5,36v24.8c0,8,6.4,14.4,14.4,14.4h0c8,0,14.4-6.4,14.4-14.4V36H325.5z"/>
	</g>
</g>
<circle class="st2" cx="245.7" cy="259.7" r="42.1"/>
<circle class="st2" cx="484" cy="100" r="42.1"/>
</svg>
