<?xml version="1.0" encoding="utf-8"?>
<!-- Generator: Adobe Illustrator 21.0.0, SVG Export Plug-In . SVG Version: 6.00 Build 0)  -->
<svg version="1.1" id="Layer_1" xmlns="http://www.w3.org/2000/svg" xmlns:xlink="http://www.w3.org/1999/xlink" x="0px" y="0px"
	 viewBox="0 0 924.8 987.4" style="enable-background:new 0 0 924.8 987.4;" xml:space="preserve">
<style type="text/css">
	.st0{fill:#F4FAFE;}
	.st1{opacity:0.63;fill:url(#SVGID_1_);enable-background:new    ;}
	.st2{fill:#FFB164;}
	.st3{fill:#DBDBDB;}
	.st4{fill:#606060;}
	.st5{fill:#E87F18;}
	.st6{fill:#19847E;}
	.st7{fill:#04AAA8;}
	.st8{fill:#2252A4;}
	.st9{fill:#FF9C28;}
	.st10{fill:#FFAD4A;}
	.st11{fill:#FFE14D;}
	.st12{opacity:0.63;fill:url(#SVGID_2_);enable-background:new    ;}
	.st13{fill:#68E1FD;}
	.st14{fill:#603813;}
	.st15{fill:#E09A34;}
	.st16{fill:#FFFFFF;}
	.st17{opacity:0.63;fill:url(#SVGID_3_);enable-background:new    ;}
	.st18{opacity:0.47;fill:#42210B;enable-background:new    ;}
	.st19{fill:#F67770;}
	.st20{fill:#42210B;}
	.st21{fill:#E6E6E6;}
	.st22{fill:#200904;}
	.st23{fill:#FF9F9F;}
	.st24{fill:#F04900;}
	.st25{opacity:0.41;fill:url(#SVGID_4_);enable-background:new    ;}
	.st26{fill:#0C8396;}
	.st27{fill:#FC9C54;}
	.st28{fill:#653200;}
	.st29{fill:#FFC9B5;}
	.st30{fill:#688C03;}
	.st31{fill:#2C1D1A;}
	.st32{fill:#C13D3D;}
	.st33{fill:#6D5854;}
	.st34{fill:#8CCC00;}
</style>
<path class="st0" d="M924.8,4.9c-89.3,8.9-113.7,97-318.3,18.4c-129.7-49.8-208.7-6.6-244,7.6c-18.5,7.4-35.9,18.3-50.5,32.4
	c-35.5,34.3-43.9,87.3-28.9,137l0,0c7.9,26.6,1.7,58.5-19,84.5c-23.3,29.2-58.7,42.9-90.2,38.1c-9.6-1.9-19.5-2.9-29.7-2.9
	C65,320,0,381,0,457.7c0,36.1,14.2,68.9,37.5,93.6c17.5,19.5,28.4,47.1,28.4,77.7c0,25.6-7.6,49.1-20.4,67.6
	c-20.1,24.1-32.1,54.1-32.1,86.5c0,79.5,71.5,143.9,159.6,143.9c29.3,0,56.8-7.1,80.5-19.6c38.3-18,86.5-28.8,138.9-28.8
	c79.9,0,150,24.9,190,62.5l0,0c31.7,28.5,74.9,46.1,122.6,46.1c65,0,121.8-32.7,152.4-81.4c9.1-12.5,36.2-44.6,67.4-35.7L924.8,4.9
	L924.8,4.9z"/>
<linearGradient id="SVGID_1_" gradientUnits="userSpaceOnUse" x1="82.6749" y1="344.737" x2="106.0554" y2="382.507" gradientTransform="matrix(1.015 0 0 -1.015 -0.99 1000.75)">
	<stop  offset="0" style="stop-color:#FFFFFF;stop-opacity:0"/>
	<stop  offset="0.99" style="stop-color:#754C24"/>
</linearGradient>
<path class="st1" d="M105.5,603.5l-46.9,27.4l40.7,23.7l26.8-14.4C112.7,631.6,119.2,612,105.5,603.5z"/>
<polygon class="st2" points="85.3,616.1 161.6,572 203.2,595.6 126.1,640.3 "/>
<polyline class="st3" points="165.5,598.5 165.5,607.3 128.9,627.9 108.8,616 108.8,608.3 "/>
<polygon class="st4" points="108.8,608.3 145.5,587.1 165.5,598.5 128.5,619.9 "/>
<polygon class="st5" points="160.7,417 203.1,396.1 203.1,596 160.7,572 "/>
<polygon class="st2" points="85.3,480.1 161.6,436.1 203.2,459.7 126.1,504.3 "/>
<polygon class="st6" points="136.6,457.5 113.2,443.9 105.7,448.1 129.1,463.1 "/>
<polygon class="st7" points="129.4,461.2 129.4,490.9 105.7,477.6 105.7,448.1 "/>
<polyline class="st8" points="129.4,461.2 136.6,457.5 136.6,486.9 129.4,490.9 "/>
<polygon class="st2" points="85.1,416.6 161.5,372.5 203.1,396.1 126,440.8 "/>
<polygon class="st2" points="85.1,547.7 161.5,503.6 203.1,527.2 126,571.8 "/>
<polygon class="st9" points="126,440.8 85.1,416.6 85.3,616.1 126.1,640.3 "/>
<polygon class="st6" points="196.6,497.6 175.9,485.6 169.3,489.2 189.9,502.4 "/>
<polygon class="st7" points="190.2,500.8 190.2,526.9 169.3,515.3 169.3,489.2 "/>
<polyline class="st8" points="190.2,500.8 196.6,497.6 196.6,523.4 190.2,526.9 "/>
<polygon class="st6" points="188.8,499.1 165.3,485.5 157.8,489.6 181.2,504.6 "/>
<polygon class="st7" points="181.5,502.7 181.5,532.4 157.8,519.2 157.8,489.6 "/>
<polyline class="st8" points="181.5,502.7 188.8,499.1 188.8,528.4 181.5,532.4 "/>
<polygon class="st10" points="272.2,339.8 278.2,358.5 292.4,368.4 281.5,375.6 283.9,393.2 271.3,378.6 258.5,380 261.3,364.3 
	251.2,347 265.5,351.9 "/>
<polyline class="st10" points="278.8,396.7 283.9,393.2 275.8,369.7 272.2,339.8 267.2,343.3 262.4,354 251.2,347 246.2,350.5 "/>
<polygon class="st11" points="267.2,343.3 273.2,362 287.3,371.9 276.8,378.5 278.8,396.7 266.3,382.1 253.4,383.5 256.2,367.8 
	246.2,350.5 260.5,355.4 "/>
<polygon class="st10" points="361.3,288 367.3,306.7 381.5,316.6 370.7,323.8 373,341.4 360.5,326.8 347.6,328.2 350.4,312.5 
	340.4,295.2 354.6,300.1 "/>
<polyline class="st10" points="368,345 373,341.4 364.9,317.9 361.3,288 356.3,291.6 351.5,302.2 340.4,295.2 335.3,298.7 "/>
<polygon class="st11" points="356.3,291.6 362.3,310.3 376.5,320.1 365.9,326.8 368,345 355.4,330.3 342.6,331.7 345.4,316.1 
	335.3,298.7 349.6,303.7 "/>
<g>
	
		<linearGradient id="SVGID_2_" gradientUnits="userSpaceOnUse" x1="588.5776" y1="388.2131" x2="629.2961" y2="452.7065" gradientTransform="matrix(1.015 0 0 -1.015 -0.99 1000.75)">
		<stop  offset="0" style="stop-color:#FFFFFF;stop-opacity:0"/>
		<stop  offset="0.99" style="stop-color:#754C24"/>
	</linearGradient>
	<path class="st12" d="M528.7,493l-74,36.1l235.2,139l89.1-48.2C765.4,611.1,542.2,501.5,528.7,493z"/>
	<path class="st13" d="M778.9,422.8L488.3,258.3v185.5c0,5,2.7,9.6,7,12.1l262.9,148.8c6.7,3.8,15.1,1.4,18.9-5.2
		c1.2-2.1,1.8-4.4,1.8-6.8L778.9,422.8z"/>
	<path class="st14" d="M762.9,604.5L578.1,499.9c-26.5-15-54.8-28.5-80.2-45.4c-8.4-5.6-7.2-13.1-7.2-21.9V258.3l-3.6,2.1l187,105.8
		l94.4,53.4c2.8,1.6,5.5,3.3,8.4,4.7c1.8,0.9,0.1,0.5-0.2-1.4c0.1,1.2,0.1,2.5,0,3.7c-1.5,16.4,0,33.7,0,50.1v109.8
		c0,7.7,1.4,24.3-13.6,17.9c-2.8-1.2-5.2,2.9-2.4,4.1c12,5.2,20.5-3.2,20.7-15c0.3-11.7,0-23.4,0-35.1V422.8c0-0.9-0.4-1.7-1.2-2.1
		l-255-144.3l-35.6-20.1c-1.2-0.6-2.6-0.2-3.3,0.9c-0.2,0.4-0.3,0.8-0.3,1.2v166.1c0,9.8-2.9,24.9,5.8,31.8c5.6,4.5,12.9,7.5,19,11
		l46.7,26.4l123.7,70l79.2,44.9c1.1,0.7,2.6,0.3,3.3-0.8C764.4,606.6,764.1,605.2,762.9,604.5z"/>
	<path class="st15" d="M484.1,435c-3.5-0.1-16.6,5.9-16.6,5.9v15.5l300.7,169.1c0,0,13.6-7.2,13.6-9.5s-2.1-17.3-2.1-17.3L484.1,435
		z"/>
	<polygon class="st10" points="769,369.9 777.9,397.6 798.9,412.2 782.8,422.9 786.3,448.9 767.7,427.3 748.6,429.3 752.8,406.1 
		738,380.5 759.1,387.8 	"/>
	<polyline class="st10" points="778.8,454.2 786.3,448.9 774.3,414.1 769,369.9 761.6,375.1 754.5,390.9 738,380.5 730.5,385.7 	"/>
	<polygon class="st11" points="761.6,375.1 770.5,402.8 791.4,417.4 775.8,427.2 778.8,454.2 760.3,432.5 741.2,434.6 745.4,411.4 
		730.5,385.7 751.7,393 	"/>
	<polygon class="st16" points="683.3,464.4 671.8,459.2 669.2,470 679.3,474.6 678.8,484.4 666.9,478.9 662.6,496.6 654,492.7 
		658.4,475 648.6,470.5 644.3,488.2 635.7,484.3 640,466.6 630.2,462.1 630.7,452.4 642.2,457.6 644.8,446.8 634.7,442.2 
		635.2,432.4 647.1,437.8 651.4,420.2 660,424.1 655.6,441.8 665.4,446.3 669.7,428.6 678.3,432.5 674,450.2 683.8,454.7 	"/>
	<polygon class="st13" points="660.8,466 651.8,461.6 654.3,450.8 663.3,455.2 	"/>
	<polygon class="st16" points="718.5,450.9 715,520.6 704.2,515.7 706.8,463.5 694.9,466.2 695.5,452.6 713.7,448.7 	"/>
</g>
<g>
	
		<linearGradient id="SVGID_3_" gradientUnits="userSpaceOnUse" x1="-38.9927" y1="88.9803" x2="5.2557" y2="160.4297" gradientTransform="matrix(-1.015 0 0 -1.015 366.7445 1000.75)">
		<stop  offset="0" style="stop-color:#FFFFFF;stop-opacity:0"/>
		<stop  offset="0.99" style="stop-color:#754C24"/>
	</linearGradient>
	<path class="st17" d="M349.1,829.8l84.8,47.2l-42.8,33.6l-53-32.1C344.8,874.1,342.4,834,349.1,829.8z"/>
	<polygon class="st13" points="170.4,519.5 234.8,481.6 234.8,691.3 170.4,729.9 	"/>
	<polygon class="st18" points="170.4,519.5 234.8,481.6 234.8,691.3 170.4,729.9 	"/>
	<path class="st19" d="M416.5,454.5c2.9-3,5.2-6.5,6.8-10.4c0.8-3.4,2.3-17.1,4.2-17.8c5.3-1.9,0.3,8.9,2.3,8.6
		c2-0.4,10.5-10,13.1-10.7c2.5-0.7,6.6,5.7,5.6,9.5c-1.7,4-4,7.7-6.9,11l-20.5,18.8"/>
	<path class="st20" d="M350.9,688.7c-0.5,2.8,0.2,5.6,1.9,7.8c2.9,3.2,14.2,13.1,15.2,15.3c1.1,2.1,2.6,8,0,10.1
		c-2.6,2-7.5,2.3-13.6,0c-6.1-2.3-20.8-11.8-23.5-14.8c-2.7-3,0-33.2,0-33.2s15.7-3.8,21.1,0L350.9,688.7z"/>
	<path class="st20" d="M309.4,708.9c-0.5,2.8,0.2,5.6,1.9,7.8c2.9,3.2,14.2,13.1,15.2,15.3s2.6,8,0,10.1c-2.6,2-7.5,2.3-13.6,0
		s-20.8-11.8-23.5-14.8s0-33.2,0-33.2s15.7-3.8,21.1,0L309.4,708.9z"/>
	<path class="st21" d="M352.8,492.9c0,0,8,35.6,8.6,69c0.5,33.3-3.4,122.8-3.4,122.8s-9.2,8.9-29.5,5.8V566.2c0,0-7.1,2.6-7.1,7.9
		c0,5.3-6.5,132.3-6.5,132.3s-3.6,6.7-30.2-3.6c0,0-9.1-168.4,10.4-201"/>
	<path class="st20" d="M305,497.4c4.2,1.8,14.8,10.3,23,13.5c7.9,3.3,16.2,5.6,24.7,6.7c1-1.3,1.9-2.6,2.9-4.2
		c24.7-38.7,36.9-68.2,36.1-76.5s-21.8-24.6-33.9-26.6c-12.1-2-33.9,2.8-33.9,2.8s-12.1,37-15.9,65.5
		C306.9,486.7,306.9,486.7,305,497.4z"/>
	<path class="st20" d="M373,422.3c3.4,2.6,9-7.5,7.8-9.2c-1.1-1.7-18.7-10.1-22-10.2c-7.2-0.2-5.4,11.4-5.4,11.4"/>
	<path class="st22" d="M370.9,368.1c3.7,1,6.3-4.7,13.7-4.3c7.4,0.4,13.2,7.6,15,10.9c1.9,3.3,5.8,0.2,7.3,4.7
		c1.5,4.5-2.6,8.4-1.7,10.9c0,0.1,0.1,0.2,0.1,0.3c0.3,3.3-1.1,6.6-3.8,8.6c-2.3,1.2-4.7,2.1-7.2,2.6l-35.2,1.4
		c-2.3-4,1.9-29.8,3.6-32.4C364.6,368.2,367.9,367,370.9,368.1z"/>
	<path class="st19" d="M397.9,391.4c0.6,2-16.4,27.3-25.2,24.3c-8.8-2.9-13.4-18.5-12.6-22.2c0.7-3.7,9.4-20.9,13.5-20.9
		S394,379.3,397.9,391.4z"/>
	<path class="st22" d="M397.7,381.7c0,0-1.3,7.1-11.8,3.6s-12.2-1.6-15,1.3c-5.3,5.5-15.8,9.8-9-10.9c0.3-1,13.8-11.1,22-8.4
		C392,369.9,397.7,381.7,397.7,381.7z"/>
	<path class="st19" d="M368.4,389.7c0,0-0.6-6.8-4.2-5.4c-3.6,1.4-4.7,8.2-2.3,11.6"/>
	<path class="st20" d="M391.7,437c0.9,10.8,0.6,21.6-0.9,32.4c0,0,27.6-25,29.9-23.4c2.3,1.6,8.4,11.1,7.4,15
		c-1,3.9-37.1,45.4-55.7,41.9c-18.7-3.5-10.5-44.8-10.5-44.8"/>
	<polygon class="st13" points="469.8,600.7 469.8,384.6 207.3,539.2 207.3,758 	"/>
	<polygon class="st23" points="459.3,462.6 523.6,424.7 523.6,634.5 459.3,673 	"/>
	<path class="st24" d="M510.4,536.3c0,0-16.9,1.4-20.5,0c-3.6-1.4-14.8-5.5-15.6-2.2c-0.8,3.3,5.6,4.9,5.6,4.9s-11.4,2.9-14.6,3.8
		c-3.2,0.9-1.4,3.9,1.2,3.5c0,0-6.6,3-4.4,4.5c1.5,0.9,3.2,1.1,4.9,0.7c0,0-3,2.5,0.4,4c3.2-0.3,6.3-1,9.3-2.1c0,0-3.9,3.3-2.6,4.2
		c1.2,0.9,0.9,1.8,12.4-4.2c0,0,24-5.4,29.4-6.3"/>
	
		<linearGradient id="SVGID_4_" gradientUnits="userSpaceOnUse" x1="134.0123" y1="229.5761" x2="178.8005" y2="277.209" gradientTransform="matrix(-1.015 0 0 -1.015 759.6611 1000.75)">
		<stop  offset="0" style="stop-color:#FF734D;stop-opacity:0"/>
		<stop  offset="1" style="stop-color:#42210B"/>
	</linearGradient>
	<path class="st25" d="M594.9,703.1c13.9,5.8,49.9,23.8,71.7,35.8c-7.5,4.5-15.3,8.4-23.4,11.8c-8,3.7-15,8.9-22.6,13.5
		c-12,7.2-25.5,12.1-36.3,21.1c-15.3-12.9-40.6-32.2-54.4-43.1c-0.5,0-5.2-4.6-4.8-7.5C540.2,727.5,591.8,705.5,594.9,703.1z"/>
	<path class="st13" d="M612.2,723.7l3.3-2.1v-37.5l-16.5-0.6c0,0-0.3,16-4.2,19.6c-3.9,3.6-13.5,1-14.5,1.3
		c-0.9,0.3-7.4-1.6-10.3,1.4s9.9,11.6,16.6,13.2c4.6,0.9,9.4,1.1,14.1,0.5c0,0,1.5-9.6,3.8-8.6c2.4,0.9,2.5,11.1,2.5,11.1
		L612.2,723.7z"/>
	<path class="st20" d="M628.4,578.6c-0.2-24.8-2.1-47.7-22-65l-1.2,4.5c0-0.2,0-0.3,0-0.5c-0.2-2.1-3.8-3.1-4.2-0.6
		c0,0.2,0,0.4,0,0.6v0.1c0,0.8-0.2,1.7-0.2,2.5c-0.8-0.9-2.1-0.9-3-0.1c-0.1,0.1-0.2,0.2-0.2,0.2c-3.9,1.2-5.4,6.8-5.5,10.3
		c0,1.2,0.9,2.1,2.1,2.1s2.1-0.9,2.1-2.1c-0.1-1.6,0.2-3.2,1.1-4.6l0.4-1.1v0.1v0.3c-0.2,1-0.1,2.1,0.1,3.1c0.2,0.5,0.5,1,1,1.2
		c0.2,0.8,0.4,1.6,0.6,2.4l-5.7,1.6l-8.1,52.4c0,0,1.1,114.1,4.6,115.1c23.8,6.9,33.6-4.6,33.6-4.6
		C625.5,657.6,628.7,617.9,628.4,578.6z"/>
	<path class="st13" d="M567.1,752.6l3.3-2.1V713l-16.5-0.6c0,0-0.3,16-4.2,19.6c-3.9,3.6-13.5,1-14.5,1.3c-0.9,0.3-7.4-1.6-10.3,1.4
		s9.9,11.6,16.6,13.2c4.6,0.9,9.4,1.1,14.1,0.5c0,0,1.5-9.6,3.8-8.6c2.4,0.9,2.5,11.1,2.5,11.1L567.1,752.6z"/>
	<path class="st20" d="M573,530.6c0,0-15.2,56-21.3,106.2c-1.5,12-13.9,83.8-13.9,83.8s20.5,7.5,38.8,1.6c0,0,21.7-91.6,22.6-93.4
		c0.9-1.8,15.6-61.1,17.3-103.7"/>
	<path class="st26" d="M571.3,456.1l-9.1,1.6c-1.8,1.3-15.6,16.9-16.7,32.6c1,4.2,2.3,8.3,3.9,12.2c1.9,5.4,3.9,10.8,6.2,16.1
		c2.4,5.8,5.3,11.3,8.5,16.6c1.4,2.3,2.1,3.4,3.8,5.5c1.3,0.3,2.7,0.5,4.1,0.3c27.9-3.5,38.8-25.6,38.6-27.9
		c-0.2-2.3-12.6-30.4-20.2-47C586.9,458.9,579.1,454.7,571.3,456.1z"/>
	<path class="st24" d="M536.2,438.1c0,0,7.9,29.5,19.3,27.6c11.4-1.9,17.5-19,15.6-25C569.2,434.7,545.7,422.3,536.2,438.1z"/>
	<path class="st27" d="M577.9,403.6c-5.6-3.8-13.2-2.9-17.8,2.1c-4.2,4.7-4.7,10.9-3.3,16.8c-7-1.3-15.1,0.7-22.3,8.4
		c0,0-6.4,8.7-1.7,13.3c4.8,4.6,11.3,0.8,17.4-1.4c6.1-2.2,4.5,5.2,7.9,10.5c3.4,5.3,6.3,4.7,8.9,3.8c2.6-0.9,11.6-9.1,5.9-22.2
		c-0.3-0.8-0.7-1.6-1.2-2.3c1.5-0.7,3-1.5,4.3-2.4c3.3-1.8,5.9-4.5,7.6-7.9C586.3,415.5,583.9,407.7,577.9,403.6z"/>
	<path class="st28" d="M610.1,566.3c-1.3,26.8-9.3,52.5-16,78.3c-6.7,25.8-12.4,51.5-17.3,77.5l2.3-0.6c5-26.3,10.8-52.4,17.6-78.3
		c6.6-25.3,14.2-50.6,15.5-76.8C612.2,565,610.1,565,610.1,566.3z"/>
	<path class="st26" d="M545.5,490.2c0,0-7.9,24.1-14.5,30.4c-4.6,4.4-24.7,11.3-36.3,15c0.5,7.4,3.1,14.6,7.7,20.5
		c17.1-3.9,44.7-13.9,51.5-21.9c9.9-11.8,14.5-29,14.5-29L545.5,490.2z"/>
	<path class="st19" d="M309.1,488.2l7.3,7.1c0,0,6.4,5.9,5.9,8.3s-8.6-3.8-10.4-4.9s3.8,13.6,3,15.3c-0.8,1.6-2.6,1.1-3.5,0
		s0.3,3.6-2.4,3.2c-2.7-0.4-3.2-3.5-3.2-3.5s-1.8,3.3-3.9,1.6s-7.1-18.6-6-23.3C296.8,487.2,305.4,484.6,309.1,488.2z"/>
	<path class="st19" d="M295.1,493c0,0-2,14.8,0.5,15.6c2.5,0.9,5.6-4.2,5.6-4.2s-2-12.6-3.2-14.3S295.1,493,295.1,493z"/>
	<path class="st20" d="M324,413.2c0,0-40.9,19.2-49,29.1s15.1,54,15.1,54l19.6-7.7c0,0-12.9-33-7.9-34.8c5-1.8,30.6-10.1,30.6-10.1"
		/>
	
		<ellipse transform="matrix(0.1452 -0.9894 0.9894 0.1452 -366.4541 758.679)" class="st16" cx="255.9" cy="591.4" rx="50.8" ry="26.4"/>
	<path class="st29" d="M308.3,584.7c0,0-17.6-1.9-19.7-3.2s-7.5-23.2-9.4-22.9s-3.8,6.3-3.8,8.6c0,2.3,2.9,12,1.6,11.9
		s-4.2-5.1-6.1-4c-1.9,1.1,4.6,12.9,7.2,13.8c2.5,0.7,5,1.3,7.5,1.7l23.2,9.5"/>
	<path class="st30" d="M373.1,575.6c0,0-31.9,11.2-39,11.4c-7.1,0.2-37.3-4.4-37.3-4.4s-5.9,10.5-2.1,14.9c0,0,29.6,9.8,40,10.3
		c10.4,0.5,42.7-3.6,46.9-7.8S373.1,575.6,373.1,575.6z"/>
	<path class="st31" d="M347.5,839.8c0,0-7.5-6.3-16-3.9c-8.4,2.4-6.7,8.8-1.4,12.8s25.8,17.7,32.1,17.6c6.3-0.1,7.7-5.2,7.8-8.7
		c-0.4-5.4-1-10.7-1.9-16"/>
	<path class="st31" d="M352.2,839.4c-0.1,0.9-0.9,1.5-1.8,1.4c-0.1,0-0.2,0-0.3-0.1c-2.3-0.7-4.5-1.6-6.7-2.6c0,0-7.3,0-2.8,7.3
		c4.4,7.3,19.6,9.4,24.3,6.7c4.7-2.7,1.6-10.4,1.6-10.4"/>
	<path class="st31" d="M329.8,854c0,0-7.5-6.3-16-3.9c-8.4,2.4-6.7,8.8-1.4,12.8s25.8,17.7,32.1,17.6c6.3-0.1,7.7-5.2,7.8-8.7
		c-0.4-5.4-1-10.7-1.9-16"/>
	<path class="st29" d="M334.5,853.5c-0.1,0.9-0.9,1.5-1.8,1.4c-0.1,0-0.2,0-0.3-0.1c-2.3-0.7-4.5-1.6-6.7-2.6c0,0-7.3,0-2.8,7.3
		c4.4,7.3,19.6,9.4,24.3,6.7c4.7-2.7,1.6-10.4,1.6-10.4"/>
	<path class="st32" d="M326.6,656c-2.4,5.5-3.8,84.9-2.8,105.3c0.9,20.4,10.7,92.2,10.7,92.2s5.6,8.4,15,7.9
		c9.4-0.6,7.6-8.2,7.6-8.2s12,5.6,17.2-6.7c1.9-4.5,11.1-131,11.1-145.4c-0.3-17.2-5-34-13.7-48.9"/>
	<path class="st33" d="M357,853.2c0,0,5.7-160.3,5-165c-0.7-4.7,1.6,35.2,1.4,46.1C363.3,742,358.7,842.3,357,853.2z"/>
	<path class="st34" d="M326.6,656c0,0-8.3-56.8,3.5-67.4c11.8-10.7,44.6-18.3,50.6-13c6,5.3-3.1,65.5-9.2,76.7
		C365.4,663.5,331,660.4,326.6,656z"/>
	<path class="st29" d="M341.6,546.9c-0.3,0.8-6.1,23,4,26.1c10.1,3.1,12.2-8.9,13.2-9.6s4.2-1.8,4-4.2c-0.2-2.4-4-2.5-4-2.5
		s-1.5-6.3-6-9.1C348.2,544.8,341.6,546.9,341.6,546.9z"/>
	<path class="st31" d="M351,553c0,0-8.4,0.1-12.1-3.5c-2.8-2.8-2.7-7.3,0.1-10.1c0.2-0.2,0.3-0.3,0.5-0.5c0,0-3.4-6.7,3-8.4
		c0,0,0.6-6.2,13.2-3.3c12.6,2.8,24.1,11.7,24.3,23.2c0.2,11.5,1,12.8,5.1,15.5c4.1,2.7,3,12.6-7.9,13.1s-25.8-0.5-27.1-5.9
		s6.9-6,7.9-11.3C358.3,557.5,355.3,553.6,351,553z"/>
	<path class="st29" d="M279.2,618.7c0,0-11.1,0.6-13.3-0.3c-3.5-1.2-7.1-2.1-10.7-2.8l0,0c-0.5-0.1-1-0.2-1.6-0.3
		c-1.1-0.1-3.2-0.6-3.8,0.7c-1.3,2.7,4.7,3.7,6.9,4c0,0,0,0,0,0.1c-0.8,0.8-12.9,2.7-14.8,3c-1.9,0.3-2.9,6-2.9,6
		c2.4,4.5,9.8,4.8,14.6,4.8c4.8,0,11.3-4.2,12.9-4.2c1.6,0,13.6,2.3,15.6,1.3S279.2,618.7,279.2,618.7z"/>
	<path class="st34" d="M331.1,588.9c-5.2,2.1-8.9,6.2-13.4,9.3c-3.2,2.3-6.6,4.7-9.9,6.9c-3.2,2.4-6.7,4.4-10.5,5.7
		c-6,1.6-12.2,2.1-18.3,3.2c-1.5,0.1-2.9,0.5-4.2,1.3c-2.7,2.3-6.3,12.6,3.4,20.1c7.9,0.7,15.9,0.7,23.8,0.1
		c10.5-1.1,34.1-16.4,40-23.4c4-4.8,6.3-12.1,3.9-18.1c-1.7-4-5.8-6.4-10.1-6.1C334.1,587.9,332.6,588.3,331.1,588.9z"/>
</g>
</svg>
