<?xml version="1.0" encoding="utf-8"?>
<!-- Generator: Adobe Illustrator 21.0.0, SVG Export Plug-In . SVG Version: 6.00 Build 0)  -->
<svg version="1.1" id="Layer_1" xmlns="http://www.w3.org/2000/svg" xmlns:xlink="http://www.w3.org/1999/xlink" x="0px" y="0px"
	 width="100px" height="120px" viewBox="0 0 70 30" style="enable-background:new 0 0 70 30;" xml:space="preserve">
<style type="text/css">
	.st0{fill:#FF8500;}
	.st1{fill:#642C8B;}
	.st2{fill:#EF325D;}
</style>
<g>
	<g>
		<path class="st0" d="M40,13.5c-0.5-0.3-0.9-0.6-1.5-0.5c-2.1,0-4.2,0-6.3,0c-2.2,0-4.3,0-6.5,0c-0.8,0-1,0.2-1,1
			c0,3.1,0.2,6.3,0,9.4c-0.2,2.4,0.4,4.1,2.5,5.3c0.5,0.3,0.9,0.7,1.5,0.7c4.3,0,8.7,0,13,0c0.7,0,0.9-0.2,0.9-0.9
			c0-3-0.2-6.1,0-9.1C42.8,16.9,42.2,14.9,40,13.5z M38.4,23.2c0,0.3,0,0.6,0,1.1c-0.9-0.5-1.4-1-1.3-2c0.1-0.7,0-1.4,0-2.2
			c0-0.4,0-0.7,0.6-0.7s0.7,0.2,0.7,0.7C38.4,21.2,38.4,22.2,38.4,23.2z M38.7,15.4c-3.4,0-6.8,0-10.2,0c-0.7,0-1,0.1-1,0.9
			c0,0.1,0,0.2,0,0.2c1,0.6,1.4,1.4,1.3,2.5c-0.1,0.8-0.1,1.7,0,2.6c0,0.7-0.2,1-0.9,1c-0.1,0-0.2,0-0.3,0c0,0.3,0,0.7,0,1
			c0,0.6,0.2,0.8,0.8,0.8c2.2,0,4.4,0,6.6,0c0.9,0,1.5,0.3,2.1,1.2c-3.4,0-6.6,0-9.9,0c-0.6,0-0.7-0.2-0.7-0.8c0-3.2,0-6.3,0-9.5
			c0-0.6,0.2-0.7,0.8-0.7c3.6,0,7.2,0,10.8,0c0.7,0,1.1,0.3,1.5,0.8C39.2,15.5,38.9,15.4,38.7,15.4z M35.5,20.4c0,2.2,0,2.2-2.3,2.2
			s-2.3,0-2.3-2.2s0-2.2,2.3-2.2C35.5,18.1,35.5,18.1,35.5,20.4z"/>
		<path class="st0" d="M27.2,21.6c0,0.4-0.1,0.8,0.4,0.9c0-2,0-4,0-6c-0.1-0.1-0.2-0.1-0.3-0.2C27.2,18.2,27.2,19.9,27.2,21.6z"/>
	</g>
</g>
<g>
	<path class="st1" d="M7.9,10.2c0.1,0,0.2,0,0.3,0.1c0.1,0,0.1,0.1,0.1,0.2c0,0.2,0,0.4,0,0.6c0,0.1,0,0.1-0.1,0.2
		c0,0-0.1,0.1-0.2,0.1c-0.2,0-0.3,0-0.5,0s-0.3,0-0.5,0s-0.3,0-0.5,0c-0.1,0-0.3,0-0.4,0c-0.2,0-0.3,0-0.4-0.1
		c-0.1,0-0.1-0.1-0.1-0.3s0-0.3,0-0.5c0-0.1,0.1-0.2,0.1-0.3c0.1,0,0.2-0.1,0.3,0h0.2c0,0,0-0.1,0-0.3s0-0.4,0-0.6s0-0.5,0-0.8
		s0-0.6,0-0.8s0-0.5,0-0.6c0-0.2,0-0.3,0-0.3s0,0-0.1,0.1c0,0,0,0-0.1,0.1L5,8.1C4.9,8.2,4.7,8.3,4.6,8.3S4.4,8.2,4.2,8.1
		C4.1,7.9,3.9,7.8,3.8,7.6S3.5,7.3,3.3,7.1C3.3,7,3.2,7,3.2,7L3.1,6.9C3,7,3,7.2,3,7.4C3,7.6,3,7.8,3,8s0,0.4,0,0.6C3,8.8,3,9,3,9.2
		c0,0.2,0,0.4,0,0.6c0,0.2,0,0.4,0,0.6c0.1,0,0.1,0,0.2,0s0.1,0,0.2,0c0.2,0,0.3,0.1,0.3,0.3c0,0.1,0,0.2,0,0.3s0,0.2,0,0.3
		s0,0.2-0.1,0.2c0,0-0.1,0.1-0.2,0.1c-0.1,0-0.2,0-0.3,0s-0.2,0-0.3,0c-0.2,0-0.3,0-0.5,0s-0.3,0-0.5,0H1.4c-0.1,0-0.2,0-0.2-0.1
		c-0.1,0-0.1-0.1-0.1-0.2c0-0.2,0-0.3,0-0.5c0-0.1,0-0.2,0.1-0.2s0.2-0.1,0.3-0.1h0.1h0.1c0,0,0-0.2,0-0.4s0-0.5,0-0.8s0-0.7,0-1
		c0-0.4,0-0.7,0-1s0-0.6,0-0.8c0-0.2,0-0.4,0-0.4H1.4c-0.1,0-0.2,0-0.3-0.1S1,5.5,1,5.4s0-0.2,0-0.3s0-0.2,0-0.3
		c0-0.1,0.1-0.2,0.2-0.2h0.6c0.2,0,0.4,0,0.6,0s0.4,0,0.6,0c0.2,0,0.3,0.1,0.4,0.2C3.6,5.1,3.8,5.3,4,5.5C4.2,5.8,4.4,6,4.6,6.2
		c0,0,0.1,0,0.1,0.1c0,0,0-0.1,0.1-0.1c0,0,0-0.1,0.1-0.1c0.2-0.2,0.3-0.4,0.5-0.7c0-0.2,0.1-0.4,0.3-0.6C5.8,4.6,5.9,4.6,6,4.6
		c0.2,0,0.4,0,0.6,0s0.4,0,0.6,0s0.4,0,0.6,0s0.4,0.1,0.4,0.3c0,0.1,0,0.2,0,0.3c0,0.1,0,0.2,0,0.3c0,0.2-0.1,0.2-0.4,0.3
		c-0.1,0-0.1,0-0.2,0s-0.1,0-0.2,0c0,0.4,0,0.7,0,1.1s0,0.7,0,1.1c0,0.4,0,0.7,0,1.1c0,0.4,0,0.7,0.1,1.1c0.1,0,0.1,0,0.2,0
		C7.8,10.2,7.9,10.2,7.9,10.2z"/>
	<path class="st1" d="M15.4,10.5c0,0.1,0,0.2,0,0.3s0,0.2,0,0.3s-0.1,0.1-0.2,0.1c-0.1,0-0.2,0-0.2,0h-2c-0.1,0-0.2-0.1-0.2-0.2
		c0-0.1,0-0.2,0-0.3s0-0.2,0-0.3s0-0.1,0-0.1s0.1,0,0.2-0.1h0.3C13.2,10,13.1,9.7,13,9.4s-0.2-0.6-0.3-0.9c-0.2,0-0.4,0-0.6,0
		s-0.4,0-0.6,0c-0.1,0.3-0.2,0.6-0.2,0.9C11.1,9.7,11,10,11,10.3c0.1,0,0.1,0,0.2,0s0.1,0,0.2,0c0.2,0,0.3,0.1,0.3,0.2
		c0,0.1,0,0.2,0,0.3s0,0.2,0,0.3s0,0.1-0.1,0.1c0,0-0.1,0.1-0.2,0.1c0,0,0,0-0.1,0c0,0,0,0-0.1,0c-0.3,0-0.7,0-1,0s-0.7,0-1,0
		c-0.1,0-0.2,0-0.2,0s0-0.1-0.1-0.2c0-0.1,0-0.2,0-0.2c0-0.1,0-0.2,0-0.2c0-0.1,0-0.2,0-0.2s0.1,0,0.3,0h0.4c0-0.1,0.1-0.2,0.1-0.3
		S9.8,10,9.8,9.9c0-0.6,0.1-1.1,0.2-1.5c0.1-0.4,0.2-0.8,0.3-1.3c0.2-0.7,0.4-1.5,0.6-2.3c0-0.1,0.1-0.2,0.1-0.2s0.2,0,0.3,0
		s0.3,0,0.4,0c0.1,0,0.3,0,0.4,0c0.3,0,0.4,0.1,0.5,0.3c0.1,0.2,0.2,0.5,0.3,0.7s0.2,0.5,0.3,0.7c0.2,0.6,0.3,1.1,0.5,1.6
		s0.4,1.1,0.6,1.6c0,0.1,0.1,0.3,0.1,0.4c0,0.1,0.1,0.3,0.1,0.4h0.4c0.1,0,0.1,0,0.2,0C15.4,10.4,15.4,10.5,15.4,10.5z M12.3,7.4
		c-0.1-0.2-0.1-0.4-0.2-0.5S12,6.6,11.9,6.4c-0.1,0.2-0.1,0.3-0.2,0.5s-0.1,0.3-0.1,0.5H12.3z"/>
	<path class="st1" d="M22.5,10.3c0.1,0,0.2,0.1,0.2,0.1c0,0.1,0,0.2,0,0.3s0,0.2,0,0.3s0,0.1-0.1,0.2c0,0-0.1,0.1-0.2,0.1
		c-0.2,0-0.4,0-0.6,0s-0.4,0-0.6,0s-0.3,0-0.5,0s-0.3,0-0.5,0c-0.1,0-0.2,0-0.3-0.1c0,0-0.1-0.1-0.1-0.2s0-0.2,0-0.3s0-0.2,0-0.3
		s0-0.1,0.1-0.2c0,0,0.1,0,0.2-0.1h0.3V8.5h-2.3c0,0.3,0,0.6,0,0.9c0,0.3,0,0.6,0,0.9c0.1,0,0.1,0,0.2,0s0.1,0,0.2,0
		s0.2,0.1,0.2,0.2c0,0.1,0,0.2,0,0.3s0,0.2,0,0.3s0,0.1-0.1,0.2c-0.1,0-0.1,0.1-0.2,0.1c-0.3,0-0.7,0-1,0s-0.7,0-1,0
		c-0.2,0-0.3,0-0.3-0.1C16,11.2,16,11.1,16,11s0-0.3,0-0.4c0-0.1,0-0.1,0.1-0.2s0.1-0.1,0.2-0.1s0.1,0,0.2,0s0.1,0,0.2,0
		c0-0.8,0-1.6,0.1-2.3c0-0.8,0-1.5,0.1-2.3h-0.2c-0.1,0-0.1,0-0.2,0s-0.1,0-0.2,0s-0.2-0.1-0.2-0.2s0-0.2,0-0.3s0-0.2,0-0.3
		c0-0.1,0-0.1,0.1-0.1c0,0,0.1,0,0.2,0h0.1l2.2,0.1c0.1,0,0.2,0,0.3,0.1c0,0,0.1,0.1,0.1,0.2s0,0.3,0,0.4S19,5.8,18.8,5.8
		c-0.1,0-0.2,0-0.3,0c-0.1,0-0.2,0-0.3,0c0,0.3,0,0.6,0,0.9s0,0.6,0,0.9h2.3c0-0.3,0-0.6,0-0.9s0-0.6,0-0.9c-0.1,0-0.1,0-0.2,0
		s-0.1,0-0.2,0s-0.1,0-0.2-0.1l-0.1-0.1c0-0.1,0-0.2,0-0.3c0-0.1,0-0.2,0-0.3c0-0.1,0-0.1,0.1-0.1s0.1,0,0.2-0.1c0.1,0,0.2,0,0.2,0
		h0.2c0.3,0,0.5,0,0.8,0s0.5,0,0.8,0c0.2,0,0.3,0.1,0.3,0.1c0.1,0,0.1,0.1,0.1,0.3c0,0.1,0,0.2,0,0.4c0,0.2-0.1,0.2-0.3,0.3
		c-0.1,0-0.1,0-0.2,0s-0.1,0-0.2,0v0.2c0,0.6,0,1.2,0,1.8s0,1.2,0,1.8c0,0.1,0,0.2,0,0.3s0,0.2,0,0.3s0,0.1,0,0.1s0.1,0,0.2,0
		s0.1,0,0.2,0C22.4,10.3,22.5,10.3,22.5,10.3z"/>
	<path class="st1" d="M29.9,10.5c0,0.1,0,0.2,0,0.3s0,0.2,0,0.3s-0.1,0.1-0.2,0.1s-0.2,0-0.2,0h-2c-0.1,0-0.2-0.1-0.2-0.2
		c0-0.1,0-0.2,0-0.3s0-0.2,0-0.3s0-0.1,0-0.1s0.1,0,0.2-0.1h0.3c-0.1-0.3-0.2-0.6-0.3-0.9c-0.1-0.3-0.2-0.6-0.3-0.9
		c-0.2,0-0.4,0-0.6,0s-0.4,0-0.6,0c-0.1,0.3-0.2,0.6-0.2,0.9c-0.1,0.3-0.2,0.6-0.2,0.9c0.1,0,0.1,0,0.2,0s0.1,0,0.2,0
		c0.2,0,0.3,0.1,0.3,0.2c0,0.1,0,0.2,0,0.3s0,0.2,0,0.3s0,0.1-0.1,0.1c0,0-0.1,0.1-0.2,0.1c0,0,0,0-0.1,0c0,0,0,0-0.1,0
		c-0.3,0-0.7,0-1,0s-0.7,0-1,0c-0.1,0-0.2,0-0.2,0s0-0.1-0.1-0.2c0-0.1,0-0.2,0-0.2c0-0.1,0-0.2,0-0.2c0-0.1,0-0.2,0-0.2
		s0.1,0,0.3,0H24c0-0.1,0.1-0.2,0.1-0.3s0.1-0.2,0.1-0.3c0.1-0.4,0.2-0.8,0.3-1.3c0.1-0.4,0.2-0.8,0.3-1.3c0.2-0.7,0.4-1.5,0.6-2.3
		c0-0.1,0.1-0.2,0.1-0.2s0.2,0,0.3,0c0.1,0,0.3,0,0.4,0s0.3,0,0.4,0c0.3,0,0.4,0.1,0.5,0.3c0.1,0.2,0.2,0.5,0.3,0.7
		c0.1,0.2,0.2,0.5,0.3,0.7C27.9,7,28,7.5,28.2,8s0.4,1.1,0.6,1.6c0,0.1,0.1,0.3,0.1,0.4c0,0.1,0.1,0.3,0.1,0.4h0.4
		c0.1,0,0.1,0,0.2,0C29.8,10.4,29.8,10.5,29.9,10.5z M26.7,7.4c-0.1-0.2-0.1-0.4-0.2-0.5s-0.1-0.3-0.2-0.5c-0.1,0.2-0.1,0.3-0.2,0.5
		S26,7.2,26,7.4H26.7z"/>
	<path class="st1" d="M31.1,10.2c0.2,0,0.3,0.1,0.5,0.2c0.1,0.1,0.2,0.2,0.2,0.4s-0.1,0.3-0.2,0.4c-0.2,0.1-0.3,0.1-0.5,0.1
		s-0.4-0.1-0.5-0.2c-0.1-0.1-0.2-0.2-0.2-0.4c0-0.1,0-0.2,0.1-0.2c0-0.1,0.1-0.1,0.2-0.2c0.1,0,0.2-0.1,0.2-0.1
		C31,10.2,31.1,10.2,31.1,10.2z"/>
	<path class="st2" d="M39.3,10.2c0.1,0,0.2,0,0.3,0.1c0.1,0,0.1,0.1,0.1,0.2c0,0.2,0,0.4,0,0.6c0,0.1,0,0.1-0.1,0.2
		c0,0-0.1,0.1-0.2,0.1c-0.2,0-0.3,0-0.5,0s-0.3,0-0.5,0s-0.3,0-0.5,0c-0.1,0-0.3,0-0.4,0c-0.2,0-0.3,0-0.4-0.1
		C37,11.3,37,11.2,37,11s0-0.3,0-0.5c0-0.1,0.1-0.2,0.1-0.3c0.1,0,0.2-0.1,0.3,0h0.2c0,0,0-0.1,0-0.3s0-0.4,0-0.6s0-0.5,0-0.8
		s0-0.6,0-0.8s0-0.5,0-0.6c0-0.2,0-0.3,0-0.3s0,0-0.1,0.1c0,0,0,0-0.1,0.1l-1,1.3c-0.1,0.2-0.3,0.2-0.4,0.2c-0.1,0-0.2-0.1-0.4-0.2
		c-0.2-0.2-0.3-0.3-0.5-0.5s-0.3-0.3-0.5-0.5l-0.1-0.1l-0.1-0.1c0,0.2,0,0.4,0,0.6s0,0.4,0,0.6s0,0.4,0,0.6c0,0.2,0,0.4,0,0.6
		c0,0.2,0,0.4,0,0.6c0,0.2,0,0.4,0,0.6c0.1,0,0.1,0,0.2,0s0.1,0,0.2,0c0.2,0,0.3,0.1,0.3,0.3c0,0.1,0,0.2,0,0.3s0,0.2,0,0.3
		s0,0.2-0.1,0.2c0,0-0.1,0.1-0.2,0.1c-0.1,0-0.2,0-0.3,0s-0.2,0-0.3,0c-0.2,0-0.3,0-0.5,0s-0.3,0-0.5,0H33c-0.1,0-0.2,0-0.2-0.1
		c-0.1,0-0.1-0.1-0.1-0.2c0-0.2,0-0.3,0-0.5c0-0.1,0-0.2,0.1-0.2s0.2-0.1,0.3-0.1h0.1h0.1c0,0,0-0.2,0-0.4s0-0.5,0-0.8s0-0.7,0-1
		c0-0.4,0-0.7,0-1s0-0.6,0-0.8c0-0.2,0-0.4,0-0.4h-0.2c-0.1,0-0.2,0-0.3-0.1s-0.1-0.1-0.1-0.2s0-0.2,0-0.3s0-0.2,0-0.3
		c0-0.1,0.1-0.2,0.2-0.2h0.6c0.2,0,0.4,0,0.6,0s0.4,0,0.6,0c0.2,0,0.3,0.1,0.4,0.2c0.1,0.3,0.3,0.5,0.5,0.7s0.4,0.5,0.6,0.7
		c0,0,0.1,0,0.1,0.1c0,0,0-0.1,0.1-0.1c0,0,0-0.1,0.1-0.1c0.2-0.2,0.3-0.4,0.5-0.7c0.1-0.2,0.3-0.4,0.5-0.7c0.1-0.1,0.2-0.2,0.3-0.2
		c0.2,0,0.4,0,0.6,0c0.2,0,0.4,0,0.6,0s0.4,0,0.6,0c0.2,0,0.4,0.1,0.4,0.3c0,0.1,0,0.2,0,0.3c0,0.1,0,0.2,0,0.3
		c0,0.2-0.1,0.2-0.4,0.3c-0.1,0-0.1,0-0.2,0c-0.1,0-0.1,0-0.2,0c0,0.4,0,0.7,0,1.1s0,0.7,0,1.1c0,0.4,0,0.7,0,1.1s0,0.7,0.1,1.1
		c0.1,0,0.1,0,0.2,0C39.2,10.2,39.3,10.2,39.3,10.2z"/>
	<path class="st2" d="M45.7,6.3c0.1,0.3,0.2,0.5,0.2,0.8C46,7.4,46,7.7,46,8.1c0,0.3,0,0.6-0.1,0.9s-0.2,0.7-0.4,1
		c-0.1,0.2-0.2,0.3-0.3,0.4c-0.2,0.3-0.5,0.5-0.8,0.6s-0.7,0.2-1,0.2c-1.1,0.1-2-0.2-2.7-0.9c-0.2-0.2-0.4-0.5-0.5-0.7
		c-0.1-0.3-0.2-0.5-0.3-0.8c-0.1-0.5-0.1-1,0-1.5s0.3-0.9,0.6-1.4c0.1-0.1,0.2-0.2,0.3-0.3c0.1-0.1,0.2-0.2,0.3-0.3
		c0.4-0.4,1-0.6,1.6-0.6c0.2,0,0.5,0,0.7,0s0.4,0.1,0.6,0.2c0.4,0.1,0.8,0.3,1,0.6C45.4,5.7,45.6,6,45.7,6.3z M44.2,9.8
		c0.2-0.2,0.3-0.5,0.3-0.7c0.1-0.2,0.1-0.5,0.1-0.8c0-0.2,0-0.5-0.1-0.7s-0.1-0.5-0.2-0.7c-0.1-0.2-0.2-0.4-0.4-0.6
		c-0.1-0.1-0.1-0.2-0.2-0.2C43.6,6,43.5,6,43.4,5.9c-0.2-0.1-0.4-0.1-0.6-0.1c-0.2,0.1-0.3,0.1-0.5,0.2S42,6.2,41.9,6.4
		c-0.1,0.1-0.2,0.3-0.2,0.4c-0.1,0.3-0.2,0.7-0.2,1s0,0.7,0.1,1c0,0.2,0.1,0.3,0.1,0.4c0.1,0.1,0.1,0.3,0.3,0.4
		c0.1,0.2,0.3,0.3,0.5,0.4s0.4,0.1,0.7,0.1h0.1c0,0,0,0,0.1,0c0.2,0,0.3,0,0.5-0.1C44,10,44.1,9.9,44.2,9.8z"/>
	<path class="st2" d="M51.3,4.6c0.1,0,0.2,0,0.3,0.1c0.1,0,0.1,0.1,0.1,0.2c0,0.2,0,0.3,0,0.5s0,0.3,0,0.5c0,0.1,0,0.1-0.1,0.2
		c0,0-0.1,0-0.2,0c-0.1,0-0.2,0-0.3,0s-0.2,0-0.3,0S50.6,6,50.6,5.9V5.8V5.7c0-0.1,0-0.1-0.1-0.1c0,0-0.1,0-0.2,0
		c-0.1,0-0.2,0-0.3,0s-0.2,0-0.3,0v4.8c0.1,0,0.2,0,0.3,0s0.2,0,0.3,0s0.2,0,0.2,0.1c0,0,0.1,0.1,0.1,0.2c0,0.2,0,0.4,0,0.6
		c0,0.1-0.1,0.1-0.2,0.2h-0.1h-0.1c-0.3,0-0.6,0-1,0s-0.6,0-1,0c-0.2,0-0.4,0-0.4-0.1c-0.1,0-0.1-0.2-0.1-0.3s0-0.3,0-0.4
		c0-0.1,0.1-0.2,0.1-0.2c0.1,0,0.2-0.1,0.3-0.1h0.1c0.1,0,0.1,0,0.2,0c0-0.8,0-1.6,0-2.4s0-1.6,0-2.4h-0.7c-0.1,0-0.1,0-0.1,0.1v0.1
		v0.1c0,0.1,0,0.2-0.1,0.2s-0.1,0.1-0.2,0.1c-0.1,0-0.2,0-0.3,0s-0.2,0-0.3,0c-0.2,0-0.2-0.1-0.3-0.2c0-0.1-0.1-0.3-0.1-0.4
		c0-0.2,0-0.3,0-0.5c0-0.1,0-0.2,0.1-0.2c0,0,0.1-0.1,0.3-0.1c0.4,0,0.8,0,1.3,0s0.8,0,1.3,0c0.4,0,0.8,0,1.3,0c0.2,0,0.3,0,0.5,0
		S51.1,4.6,51.3,4.6z"/>
	<path class="st2" d="M55,10.2c0.1,0,0.2,0,0.3,0.1c0,0,0.1,0.1,0.1,0.2c0,0.1,0,0.2,0,0.3s0,0.2,0,0.3s0,0.2-0.1,0.2
		c0,0-0.1,0-0.2,0c-0.4,0-0.7,0-1.1,0s-0.7,0-1.1,0c-0.1,0-0.2,0-0.2,0c-0.1,0-0.1,0-0.1,0l-0.1-0.1c0,0,0-0.1,0-0.2
		c0-0.1,0-0.2,0-0.2s0-0.2,0-0.3c0-0.2,0.1-0.2,0.3-0.2h0.1H53h0.2c0-0.8,0-1.5,0-2.3s0-1.5,0-2.3c-0.2,0-0.4-0.1-0.7,0
		c-0.1,0-0.2,0-0.2,0s-0.1-0.1-0.1-0.2s0-0.2,0-0.3s0-0.2,0-0.3c0-0.1,0.1-0.1,0.2-0.1c0.1,0,0.3,0,0.4,0c0.1,0,0.2,0,0.3,0
		s0.2,0,0.3,0h1.8c0.1,0,0.2,0,0.2,0c0.1,0,0.1,0.1,0.1,0.2c0,0.2,0,0.3,0,0.5c0,0.1-0.1,0.2-0.2,0.2c-0.1,0-0.3,0-0.4,0
		c-0.1,0-0.2,0-0.4,0h-0.3c0,0.8,0,1.6,0,2.3c0,0.8,0,1.5,0,2.3c0.1,0,0.2,0,0.2,0L55,10.2z"/>
	<path class="st2" d="M61.4,6.3c0.1,0.3,0.2,0.5,0.2,0.8c0.1,0.3,0.1,0.6,0.1,1c0,0.3-0.1,0.6-0.1,0.9c-0.1,0.3-0.2,0.7-0.4,1
		c-0.1,0.2-0.2,0.3-0.3,0.4c-0.2,0.3-0.5,0.5-0.8,0.6s-0.7,0.2-1,0.2c-1.1,0.1-2-0.2-2.7-0.9c-0.2-0.2-0.4-0.5-0.5-0.7
		c-0.1-0.3-0.2-0.5-0.3-0.8c-0.1-0.5-0.1-1,0-1.5s0.3-0.9,0.6-1.4c0.1-0.1,0.2-0.2,0.3-0.3c0.1-0.1,0.2-0.2,0.3-0.3
		c0.4-0.4,1-0.6,1.6-0.6c0.2,0,0.5,0,0.7,0s0.4,0.1,0.6,0.2c0.4,0.1,0.8,0.3,1,0.6C61,5.7,61.2,6,61.4,6.3z M59.8,9.8
		C60,9.5,60.1,9.3,60.2,9c0.1-0.2,0.1-0.5,0.1-0.8c0-0.2,0-0.5-0.1-0.7S60.1,7,60,6.8c-0.1-0.2-0.2-0.4-0.4-0.6
		C59.5,6.1,59.5,6,59.4,6c-0.1-0.1-0.2-0.1-0.3-0.2c-0.2-0.1-0.4-0.1-0.6-0.1C58.3,5.8,58.2,5.9,58,6s-0.3,0.2-0.4,0.4
		c-0.1,0.1-0.2,0.3-0.2,0.4c-0.1,0.3-0.2,0.7-0.2,1s0,0.7,0.1,1c0,0.2,0.1,0.3,0.1,0.4c0.1,0.1,0.1,0.3,0.3,0.4
		c0.1,0.2,0.3,0.3,0.5,0.4s0.4,0.1,0.7,0.1H59c0,0,0,0,0.1,0c0.2,0,0.3,0,0.5-0.1C59.6,10,59.7,9.9,59.8,9.8z"/>
	<path class="st2" d="M69.5,4.9c0,0.1,0,0.2,0,0.4c0,0.1,0,0.2,0,0.4c0,0.1-0.1,0.1-0.1,0.1c-0.1,0-0.1,0-0.2,0.1
		c-0.1,0-0.2,0-0.2,0c-0.1,0-0.2,0-0.2,0v0.3c0,0.5,0,0.9,0,1.4c0,0.4,0,0.9,0,1.3c0,0.2,0,0.3,0,0.5s0,0.3,0,0.5c0,0.4,0,0.8,0,1.2
		c0,0.2-0.1,0.3-0.3,0.3h-1.1c-0.2,0-0.3-0.1-0.4-0.2l-0.1-0.1c-0.4-0.6-0.8-1.3-1.2-1.9c-0.4-0.6-0.8-1.3-1.2-1.9
		c0,0,0-0.1-0.1-0.1c0,0,0-0.1-0.1-0.1l0,0l0,0V7c0,0.5,0,1,0,1.6c0,0.5,0,1,0.1,1.6h0.1c0,0,0,0,0.1,0s0.1,0,0.2,0s0.1,0,0.2,0
		s0.2,0.1,0.2,0.2c0,0.1,0,0.2,0,0.3s0,0.2,0,0.3s0,0.2-0.1,0.2c0,0-0.1,0.1-0.3,0.1c-0.1,0-0.2,0-0.2,0c-0.1,0-0.1,0-0.2,0
		c-0.3,0-0.6,0-0.9,0s-0.6,0-0.9,0c-0.1,0-0.2,0-0.3-0.1c0,0-0.1-0.1-0.1-0.2c0-0.1,0-0.2,0-0.3s0-0.2,0-0.3s0-0.2,0-0.2
		s0.1,0,0.2,0h0.3c0-0.7-0.1-1.5-0.1-2.2s0-1.4-0.1-2.2h-0.1c-0.1,0-0.2-0.1-0.3-0.1S62,5.6,62,5.5s0-0.1,0-0.2s0-0.1,0-0.2V5V4.9
		c0-0.1,0.1-0.2,0.2-0.2c0.1,0,0.1,0,0.2,0c0.1,0,0.2,0,0.2,0c0.3,0,0.6,0,0.9,0c0.3,0,0.6,0,0.9,0.1c0.2,0,0.3,0.1,0.4,0.2
		c0.1,0.2,0.2,0.4,0.3,0.6c0.1,0.2,0.2,0.4,0.3,0.6c0.3,0.5,0.6,1,0.9,1.5s0.6,1,0.9,1.5l0.1,0.1c0,0,0-0.1,0-0.3s0-0.3,0-0.6
		c0-0.2,0-0.5,0-0.7c0-0.3,0-0.5,0-0.7s0-0.4,0-0.6s0-0.3,0-0.3h-0.1h-0.1c-0.2,0-0.3-0.1-0.4-0.3c-0.1-0.2-0.1-0.5,0-0.7
		c0-0.1,0.1-0.1,0.2-0.2c0.2,0,0.3,0,0.5,0c0.3,0,0.6,0,0.9,0s0.6,0,0.9,0C69.3,4.6,69.5,4.7,69.5,4.9z"/>
</g>
</svg>
